<svg id="Layer_1" data-name="Layer 1" xmlns="http://www.w3.org/2000/svg" viewBox="0 0 132.19 115.39">
  <defs>
    <style>
      .cls-1 {
        opacity: 0.8;
      }

      .cls-2 {
        fill: #36e0dc;
      }

      .cls-3 {
        fill: #29cec6;
      }

      .cls-4 {
        fill: #d155d8;
      }

      .cls-5 {
        fill: #d43dd8;
      }

      .cls-6 {
        fill: #7cce55;
      }

      .cls-7 {
        fill: #69ba3e;
      }

      .cls-8 {
        fill: #d8d54e;
      }

      .cls-9 {
        fill: #c9c23a;
      }
    </style>
  </defs>
  <title>jd-logo</title>
  <g>
    <g>
      <g class="cls-1">
        <path class="cls-2" d="M92.05,67.15V99.6a15.81,15.81,0,0,1-2.2,8.33,15.07,15.07,0,0,1-6,5.64,17.83,17.83,0,0,1-8.43,2,21.2,21.2,0,0,1-8.73-1.67,12.76,12.76,0,0,1-5.84-5.13,16.41,16.41,0,0,1-2.1-8.65H71a9.8,9.8,0,0,0,.48,3.45,3,3,0,0,0,1.41,1.67,5.74,5.74,0,0,0,2.51.46,3.78,3.78,0,0,0,3.28-1.62,7.65,7.65,0,0,0,1.15-4.48V67.15H92.05Z" transform="translate(-58.75 -67.15)"/>
      </g>
      <g class="cls-1">
        <path class="cls-3" d="M106.63,70.1a20.92,20.92,0,0,1,7.94,8.2,24.28,24.28,0,0,1,2.87,11.84V92a24.29,24.29,0,0,1-2.85,11.83,20.93,20.93,0,0,1-7.87,8.19,21.84,21.84,0,0,1-11.29,3H79.48V67.15H95.13A22.43,22.43,0,0,1,106.63,70.1Zm-1.72,20q0-6.43-2.49-9.73a8.57,8.57,0,0,0-7.28-3.3H91.72v28h3.71a8.25,8.25,0,0,0,7-3.28q2.46-3.28,2.46-9.81V90.08Z" transform="translate(-58.75 -67.15)"/>
      </g>
    </g>
    <g>
      <g class="cls-1">
        <path class="cls-4" d="M92.05,134.11v32.45a15.81,15.81,0,0,1-2.2,8.33,15.07,15.07,0,0,1-6,5.64,17.83,17.83,0,0,1-8.43,2,21.2,21.2,0,0,1-8.73-1.67,12.76,12.76,0,0,1-5.84-5.13,16.41,16.41,0,0,1-2.1-8.65H71a9.79,9.79,0,0,0,.48,3.45,3,3,0,0,0,1.41,1.67,5.74,5.74,0,0,0,2.51.46A3.78,3.78,0,0,0,78.7,171a7.65,7.65,0,0,0,1.15-4.48V134.11H92.05Z" transform="translate(-58.75 -67.15)"/>
      </g>
      <g class="cls-1">
        <path class="cls-5" d="M106.63,137.06a20.92,20.92,0,0,1,7.94,8.2,24.28,24.28,0,0,1,2.87,11.84v1.8a24.3,24.3,0,0,1-2.85,11.83,20.92,20.92,0,0,1-7.87,8.19,21.84,21.84,0,0,1-11.29,3H79.48V134.11H95.13A22.43,22.43,0,0,1,106.63,137.06Zm-1.72,20q0-6.43-2.49-9.73a8.57,8.57,0,0,0-7.28-3.3H91.72v28h3.71a8.25,8.25,0,0,0,7-3.28q2.46-3.28,2.46-9.81V157Z" transform="translate(-58.75 -67.15)"/>
      </g>
    </g>
    <g>
      <g class="cls-1">
        <path class="cls-6" d="M165.55,67.15V99.6a15.81,15.81,0,0,1-2.2,8.33,15.08,15.08,0,0,1-6,5.64,17.84,17.84,0,0,1-8.43,2,21.2,21.2,0,0,1-8.73-1.67,12.76,12.76,0,0,1-5.84-5.13,16.41,16.41,0,0,1-2.1-8.65h12.27a9.79,9.79,0,0,0,.48,3.45,3,3,0,0,0,1.41,1.67,5.74,5.74,0,0,0,2.51.46,3.78,3.78,0,0,0,3.28-1.62,7.65,7.65,0,0,0,1.15-4.48V67.15h12.21Z" transform="translate(-58.75 -67.15)"/>
      </g>
      <g class="cls-1">
        <path class="cls-7" d="M180.12,70.1a20.92,20.92,0,0,1,7.94,8.2,24.28,24.28,0,0,1,2.87,11.84V92a24.29,24.29,0,0,1-2.85,11.83,20.92,20.92,0,0,1-7.87,8.19,21.84,21.84,0,0,1-11.29,3H153V67.15h15.65A22.43,22.43,0,0,1,180.12,70.1Zm-1.72,20q0-6.43-2.49-9.73a8.57,8.57,0,0,0-7.28-3.3h-3.41v28h3.71a8.25,8.25,0,0,0,7-3.28q2.46-3.28,2.46-9.81V90.08Z" transform="translate(-58.75 -67.15)"/>
      </g>
    </g>
    <g>
      <g class="cls-1">
        <path class="cls-8" d="M165.55,134.11v32.45a15.81,15.81,0,0,1-2.2,8.33,15.07,15.07,0,0,1-6,5.64,17.84,17.84,0,0,1-8.43,2,21.2,21.2,0,0,1-8.73-1.67,12.76,12.76,0,0,1-5.84-5.13,16.41,16.41,0,0,1-2.1-8.65h12.27a9.8,9.8,0,0,0,.48,3.45,3,3,0,0,0,1.41,1.67,5.75,5.75,0,0,0,2.51.46,3.78,3.78,0,0,0,3.28-1.62,7.65,7.65,0,0,0,1.15-4.48V134.11h12.21Z" transform="translate(-58.75 -67.15)"/>
      </g>
      <g class="cls-1">
        <path class="cls-9" d="M180.12,137.06a20.92,20.92,0,0,1,7.94,8.2,24.28,24.28,0,0,1,2.87,11.84v1.8a24.29,24.29,0,0,1-2.85,11.83,20.93,20.93,0,0,1-7.87,8.19,21.85,21.85,0,0,1-11.29,3H153V134.11h15.65A22.42,22.42,0,0,1,180.12,137.06Zm-1.72,20q0-6.43-2.49-9.73a8.57,8.57,0,0,0-7.28-3.3h-3.41v28h3.71a8.25,8.25,0,0,0,7-3.28q2.46-3.28,2.46-9.81V157Z" transform="translate(-58.75 -67.15)"/>
      </g>
    </g>
  </g>
</svg>
