<svg id="Layer_1" data-name="Layer 1" xmlns="http://www.w3.org/2000/svg" viewBox="0 0 646.3 646.3"><defs><style>.cls-1{fill:none;stroke:#000;stroke-miterlimit:10;stroke-width:17px;}</style></defs><title>jmdarling-logo</title><path d="M221.43,345.72v12.6L141.3,324.56V314.23l80.13-33.62v12.45L156.9,319.29Z" transform="translate(0 0)"/><path d="M286,347.48l-19.48,11q-6.45,10.91-12.93,20.62t-11.5,16a83.74,83.74,0,0,1-8.68,9.67q-3.66,3.33-5.42,3.33a5,5,0,0,1-3.81-1.57,5.26,5.26,0,0,1-1.46-3.7q0-7.91,8.9-19.81t28.16-25.31q8.35-16,13.77-29.15t8.28-22.41q2.86-9.3,4-14.94a50.43,50.43,0,0,0,1.14-7.18q0-3.15-2.42-3.15-2,0-5.82,2.27a42.79,42.79,0,0,0-8.31,6.77,66.24,66.24,0,0,0-8.35,10.44A86.48,86.48,0,0,0,255,313.54,103.49,103.49,0,0,0,250.1,327a38.76,38.76,0,0,0-1.72,9.89q0,1,.29,4.17l1.61-2.49a20.93,20.93,0,0,1,2.42-3,16.5,16.5,0,0,1,3.08-2.56,8.38,8.38,0,0,1,2.27-1.21q1.32-.48,1.32.11t-4.17,5.53q-4.17,5.09-7.25,9.19a20.39,20.39,0,0,1-4.69,4.39q-2.93,2.05-4.76,2.05A2.79,2.79,0,0,1,235.6,351a22,22,0,0,1-.7-6.52,98.36,98.36,0,0,1,13.62-47.09,66.69,66.69,0,0,1,12.38-14.32,73,73,0,0,1,14.25-10q6.92-3.59,10.88-3.59a9.36,9.36,0,0,1,7.47,3q2.64,3,2.64,8.39a32.36,32.36,0,0,1-.62,5.93q-0.62,3.3-1.57,6.67t-3.3,10.84q-2.35,7.47-3.08,9.89a116.25,116.25,0,0,1-6,15.49q-3.7,7.95-10.51,21.06L286,342.72v4.76Z" transform="translate(0 0)"/><path d="M292.77,301q0,0.51,1,.51,0.66,0,6-.88a66.42,66.42,0,0,1,9.63-1,84.43,84.43,0,0,0-8.31,2.67q-3.48,1.36-7.18,3t-5.31,2.2a8.85,8.85,0,0,1-2.78.55q-3.74,0-3.74-4.83,0-12.45,6.3-17.5a48.59,48.59,0,0,1,8.24-4.87,115.57,115.57,0,0,1,12.82-5.35,126.35,126.35,0,0,1,15.71-4.36A80.87,80.87,0,0,1,342,269.33a47.79,47.79,0,0,1,15.75,2.49,33.42,33.42,0,0,1,12,7,30,30,0,0,1,7.43,11,39.27,39.27,0,0,1,2.6,14.65,45.37,45.37,0,0,1-7.14,24,73.86,73.86,0,0,1-19,20.54,98.6,98.6,0,0,1-26.84,14.1,89.19,89.19,0,0,1-29.44,5.2,12.64,12.64,0,0,1-4.28-.59,3.74,3.74,0,0,1-2.23-2.31,15,15,0,0,1-.66-5.09,28.88,28.88,0,0,1,.66-6.81,37.65,37.65,0,0,1,2.2-6.08q10.55-23.36,36.69-58.81a81.88,81.88,0,0,0-11.57,2.23q-6.3,1.65-11.94,3.63a101.22,101.22,0,0,0-9.52,3.81Q292.76,300.17,292.77,301Zm39-12.74q0,0.15.29,1.65a13.94,13.94,0,0,1,.29,2.6,10.74,10.74,0,0,1-1.72,4.72q-1.72,3-6.77,10.8t-8.64,13.62q-3.59,5.86-8.5,15.09-1.54,2.93-2.12,4T302.76,344a27.6,27.6,0,0,0-1.87,4,8.59,8.59,0,0,0-.59,2.56,2.74,2.74,0,0,0,2.09,2.67,18,18,0,0,0,6,.77,68.19,68.19,0,0,0,21.09-3.62,86.46,86.46,0,0,0,20.91-10.07A58.92,58.92,0,0,0,366,325.8a28.65,28.65,0,0,0,5.86-17q0-10.11-7.4-15.56t-21.53-5.46Q337,287.79,331.8,288.23Z" transform="translate(0 0)"/><path d="M392.89,375.24H382.19l31.05-111h10.62Z" transform="translate(0 0)"/><path d="M436.61,293.06V280.61l80.13,33.62v10.33l-80.13,33.76v-12.6l64.53-26.29Z" transform="translate(0 0)"/><rect class="cls-1" x="103.15" y="103.15" width="440" height="440" transform="translate(-133.85 323.15) rotate(-45)"/></svg>