<svg id="Layer_1" data-name="Layer 1" xmlns="http://www.w3.org/2000/svg" viewBox="0 0 823.3 225.9"><defs><style>.cls-1{fill:#ffffe7;}.cls-2{fill:none;stroke:#ffffe7;stroke-miterlimit:10;stroke-width:8px;}</style></defs><title>jmdarling-logo-6</title><path class="cls-1" d="M59.8,89.56v-1.3H80.22v1.3H78.5a5,5,0,0,0-4.25,1.72q-0.84,1.13-.84,5.41V120a26.76,26.76,0,0,1-1.18,8.72,13.55,13.55,0,0,1-4.06,5.82,10.32,10.32,0,0,1-7,2.48,7.71,7.71,0,0,1-5.2-1.63,4.85,4.85,0,0,1-1.9-3.74A3.53,3.53,0,0,1,55,129,3.83,3.83,0,0,1,57.69,128a3.1,3.1,0,0,1,2,.74A11.9,11.9,0,0,1,62,132.63q0.81,1.9,2.07,1.9a2.27,2.27,0,0,0,1.78-1.16,7.45,7.45,0,0,0,.83-4.11V96.7a15.8,15.8,0,0,0-.46-4.78,3.15,3.15,0,0,0-1.48-1.51,6.47,6.47,0,0,0-3.2-.84H59.8Z"/><path class="cls-1" d="M107,87.17a21.62,21.62,0,0,1,16.08,7,24.33,24.33,0,0,1,6.8,17.6q0,10.86-6.86,18a22.92,22.92,0,0,1-33.13.18q-6.7-7-6.7-18.11,0-11.36,7.73-18.53A22.82,22.82,0,0,1,107,87.17Zm-0.67,2.57A12.58,12.58,0,0,0,96,94.49q-4.82,5.91-4.82,17.3,0,11.67,5,18a12.33,12.33,0,0,0,10.12,4.78,13.83,13.83,0,0,0,11.09-5.24q4.38-5.24,4.38-16.52,0-12.23-4.82-18.25A13,13,0,0,0,106.31,89.74Z"/><path class="cls-1" d="M131.69,88.26h12.94L173.77,124V96.53q0-4.39-1-5.48a5.21,5.21,0,0,0-4.11-1.48H167v-1.3h16.59v1.3h-1.69q-3,0-4.29,1.83-0.77,1.13-.77,5.13v40.18H175.6L144.17,98.32v29.36q0,4.4.95,5.48a5.28,5.28,0,0,0,4.11,1.48h1.69v1.3H134.33v-1.3H136q3.06,0,4.32-1.83,0.77-1.12.77-5.13V94.52a21.75,21.75,0,0,0-3.15-3.2,11.58,11.58,0,0,0-3.15-1.44,11.21,11.21,0,0,0-3.09-.32v-1.3Z"/><path class="cls-1" d="M217.58,120H199.12l-3.23,7.52a11.91,11.91,0,0,0-1.2,4.15,2.41,2.41,0,0,0,1,1.92q1,0.83,4.48,1.07v1.3h-15v-1.3q3-.53,3.87-1.37,1.79-1.69,4-6.86l16.77-39.23H211l16.59,39.66q2,4.78,3.64,6.21a7.42,7.42,0,0,0,4.55,1.6v1.3H217v-1.3a7,7,0,0,0,3.85-.95,2.45,2.45,0,0,0,1-2,14.59,14.59,0,0,0-1.41-4.89Zm-1-2.6-8.09-19.27-8.3,19.27h16.38Z"/><path class="cls-1" d="M270.31,88.26l0.53,11.18H269.5a13.53,13.53,0,0,0-1.05-4.22,7.06,7.06,0,0,0-2.9-3,10.12,10.12,0,0,0-4.76-1h-6.71v36.42q0,4.4.95,5.48a5.28,5.28,0,0,0,4.11,1.48h1.65v1.3H240.57v-1.3h1.69q3,0,4.29-1.83,0.77-1.12.77-5.13V91.25h-5.73a16,16,0,0,0-4.75.49,6.51,6.51,0,0,0-3.13,2.57,10.39,10.39,0,0,0-1.55,5.13h-1.34l0.56-11.18h38.92Z"/><path class="cls-1" d="M287.43,110.38h22.15V96.74a16,16,0,0,0-.46-4.82,3.15,3.15,0,0,0-1.48-1.51,6.47,6.47,0,0,0-3.2-.84h-1.69v-1.3h20.39v1.3h-1.69a6.69,6.69,0,0,0-3.2.81,3,3,0,0,0-1.53,1.71,17,17,0,0,0-.4,4.66V127.5a15.79,15.79,0,0,0,.46,4.78,3.17,3.17,0,0,0,1.44,1.51,6.66,6.66,0,0,0,3.23.84h1.69v1.3H302.76v-1.3h1.69a5,5,0,0,0,4.25-1.72q0.88-1.12.88-5.41V113H287.43V127.5a15.79,15.79,0,0,0,.46,4.78,3.14,3.14,0,0,0,1.48,1.51,6.47,6.47,0,0,0,3.2.84h1.72v1.3H273.86v-1.3h1.69a5.09,5.09,0,0,0,4.29-1.72q0.84-1.12.84-5.41V96.74a16,16,0,0,0-.46-4.82,3.17,3.17,0,0,0-1.44-1.51,6.66,6.66,0,0,0-3.23-.84h-1.69v-1.3h20.43v1.3h-1.72a6.69,6.69,0,0,0-3.2.81,3,3,0,0,0-1.51,1.71,16.27,16.27,0,0,0-.42,4.66v13.64Z"/><path class="cls-1" d="M357.57,120H339.11l-3.23,7.52a11.91,11.91,0,0,0-1.2,4.15,2.41,2.41,0,0,0,1,1.92q1,0.83,4.48,1.07v1.3h-15v-1.3q3-.53,3.87-1.37,1.79-1.69,4-6.86L349.8,87.17H351l16.59,39.66q2,4.78,3.64,6.21a7.42,7.42,0,0,0,4.55,1.6v1.3H357v-1.3a7,7,0,0,0,3.85-.95,2.45,2.45,0,0,0,1-2,14.58,14.58,0,0,0-1.41-4.89Zm-1-2.6L348.5,98.11l-8.3,19.27h16.38Z"/><path class="cls-1" d="M375.68,88.26h12.94L417.76,124V96.53q0-4.39-1-5.48a5.21,5.21,0,0,0-4.11-1.48H411v-1.3H427.6v1.3h-1.69q-3,0-4.29,1.83-0.77,1.13-.77,5.13v40.18h-1.27L388.16,98.32v29.36q0,4.4.95,5.48a5.28,5.28,0,0,0,4.11,1.48h1.69v1.3H378.31v-1.3H380q3.06,0,4.32-1.83,0.77-1.12.77-5.13V94.52a21.73,21.73,0,0,0-3.15-3.2,11.57,11.57,0,0,0-3.15-1.44,11.21,11.21,0,0,0-3.09-.32v-1.3Z"/><path class="cls-1" d="M447.85,135.94v-1.3h1.79a4.74,4.74,0,0,0,4.29-1.93q0.77-1.16.77-5.2V96.7q0-4.46-1-5.59a5.16,5.16,0,0,0-4.08-1.55h-1.79v-1.3h19.41q10.69,0,16.26,2.43a19.35,19.35,0,0,1,9,8.09,25,25,0,0,1,3.39,13.08q0,9.95-6,16.63-6.79,7.45-20.67,7.45h-21.3Zm13.61-3.45a35.91,35.91,0,0,0,7.49,1,17.78,17.78,0,0,0,13.54-5.73q5.38-5.73,5.38-15.54t-5.38-15.57a18.16,18.16,0,0,0-13.82-5.7,29.85,29.85,0,0,0-7.21,1v40.54Z"/><path class="cls-1" d="M531.56,120H513.1l-3.23,7.52a11.91,11.91,0,0,0-1.2,4.15,2.41,2.41,0,0,0,1,1.92q1,0.83,4.48,1.07v1.3h-15v-1.3q3-.53,3.87-1.37,1.79-1.69,4-6.86l16.77-39.23H525l16.59,39.66q2,4.78,3.64,6.21a7.42,7.42,0,0,0,4.55,1.6v1.3H531v-1.3a7,7,0,0,0,3.85-.95,2.45,2.45,0,0,0,1-2,14.58,14.58,0,0,0-1.41-4.89Zm-1-2.6-8.09-19.27-8.3,19.27h16.38Z"/><path class="cls-1" d="M599.27,135.94H586.54l-16.14-22.29q-1.79.07-2.92,0.07l-1,0-1.09-.05V127.5q0,4.5,1,5.59a5,5,0,0,0,4,1.55h1.86v1.3H551.85v-1.3h1.79a4.79,4.79,0,0,0,4.32-2q0.74-1.09.74-5.17V96.7q0-4.5-1-5.59a5.16,5.16,0,0,0-4.08-1.55h-1.79v-1.3h17.37q7.59,0,11.2,1.11a12.81,12.81,0,0,1,6.12,4.08,10.61,10.61,0,0,1,2.51,7.08,11.13,11.13,0,0,1-2.87,7.63q-2.87,3.24-8.88,4.57l9.84,13.68q3.38,4.71,5.8,6.26a14.61,14.61,0,0,0,6.33,2v1.3Zm-33.86-24.5,1.16,0,0.81,0q6.82,0,10.28-3a9.45,9.45,0,0,0,3.46-7.52,9.82,9.82,0,0,0-2.79-7.26,10,10,0,0,0-7.4-2.79,31.07,31.07,0,0,0-5.52.67v19.83Z"/><path class="cls-1" d="M639.91,122.75l1.16,0.25L637,135.94H600.08v-1.3h1.79a4.79,4.79,0,0,0,4.32-2q0.74-1.12.74-5.2V96.7q0-4.46-1-5.59a5.16,5.16,0,0,0-4.08-1.55h-1.79v-1.3h21.59v1.3a13.18,13.18,0,0,0-5.33.7,4.3,4.3,0,0,0-2.09,1.86q-0.56,1.13-.56,5.38v30a9.74,9.74,0,0,0,.56,4,2.51,2.51,0,0,0,1.3,1.09,22.82,22.82,0,0,0,5.48.35h3.48q5.48,0,7.7-.81a10,10,0,0,0,4-2.87A23.48,23.48,0,0,0,639.91,122.75Z"/><path class="cls-1" d="M664.84,134.64v1.3H644.41v-1.3h1.69a5.09,5.09,0,0,0,4.29-1.72q0.84-1.12.84-5.41V96.7a15.79,15.79,0,0,0-.46-4.78,3.17,3.17,0,0,0-1.44-1.51,6.66,6.66,0,0,0-3.23-.84h-1.69v-1.3h20.43v1.3h-1.72a5,5,0,0,0-4.25,1.72Q658,92.41,658,96.7v30.8a15.79,15.79,0,0,0,.46,4.78,3.15,3.15,0,0,0,1.48,1.51,6.47,6.47,0,0,0,3.2.84h1.72Z"/><path class="cls-1" d="M665.65,88.26h12.94L707.73,124V96.53q0-4.39-1-5.48a5.21,5.21,0,0,0-4.11-1.48H701v-1.3h16.59v1.3h-1.69q-3,0-4.29,1.83-0.77,1.13-.77,5.13v40.18h-1.27L678.13,98.32v29.36q0,4.4.95,5.48a5.28,5.28,0,0,0,4.11,1.48h1.69v1.3H668.28v-1.3h1.65q3.06,0,4.32-1.83,0.77-1.12.77-5.13V94.52a21.73,21.73,0,0,0-3.15-3.2,11.57,11.57,0,0,0-3.15-1.44,11.21,11.21,0,0,0-3.09-.32v-1.3Z"/><path class="cls-1" d="M762.78,87.17l1.23,15h-1.23A20.58,20.58,0,0,0,758,93.75,15.08,15.08,0,0,0,747,89.64q-9.11,0-13.85,7.21a25.89,25.89,0,0,0-4,14.48,29,29,0,0,0,2.64,12.45,18.51,18.51,0,0,0,6.91,8.24,16.58,16.58,0,0,0,8.77,2.62,19.37,19.37,0,0,0,5.1-.67,20.31,20.31,0,0,0,4.75-2V118.22a12.74,12.74,0,0,0-.54-4.69,3.68,3.68,0,0,0-1.69-1.69,9.76,9.76,0,0,0-4-.58v-1.34h18.46v1.34h-0.88q-2.74,0-3.76,1.83-0.7,1.3-.7,5.13v14.59a35.69,35.69,0,0,1-8,3.2,34.93,34.93,0,0,1-8.75,1q-13.82,0-21-8.86a23.66,23.66,0,0,1-5.38-15.33A26.87,26.87,0,0,1,734,90.23a24.11,24.11,0,0,1,12.38-3.06,24.38,24.38,0,0,1,4.73.42,43.21,43.21,0,0,1,6,1.86,9.73,9.73,0,0,0,2.64.74,1.41,1.41,0,0,0,1.14-.62,4.7,4.7,0,0,0,.58-2.41h1.3Z"/><rect class="cls-2" x="4" y="4" width="815.3" height="217.9"/></svg>